<svg width="737" height="324" viewBox="0 0 737 324" fill="none" xmlns="http://www.w3.org/2000/svg">
<rect width="737" height="324" fill="#FBBD08"/>
<path d="M619.352 123.199C551.459 100.179 450.553 125.065 406.328 184.79C358.367 112.622 264.935 91.4695 187.699 133.153C157.801 148.706 133.508 186.657 136 217.763C136.623 224.607 138.491 244.515 152.818 256.336C159.046 261.313 165.275 263.179 167.144 263.802C169.635 264.424 179.601 267.534 192.682 264.424C207.008 260.691 220.088 250.115 218.843 244.515C218.843 243.893 218.22 242.027 216.974 242.027C215.105 241.405 211.991 243.893 211.368 244.515C205.139 250.115 190.19 255.092 181.47 255.714C171.504 256.336 160.915 250.115 155.309 243.893C139.114 225.851 150.326 196.611 151.572 192.878C158.424 172.347 178.356 158.66 197.042 149.95C243.758 126.931 305.422 125.687 349.647 154.305C367.71 166.126 383.905 183.546 395.74 202.21C388.888 214.653 382.659 228.962 382.659 242.649C382.659 256.958 390.757 276.244 406.951 275.622C420.655 275 429.375 260.069 430.621 247.626C431.866 230.828 423.146 213.408 415.049 198.477C416.294 197.233 418.163 194.744 420.032 192.256C458.65 149.328 509.726 137.508 519.692 135.019C541.493 130.664 599.42 118.221 640.53 151.195C646.759 156.172 669.805 174.836 670.428 202.832C670.428 217.763 663.576 239.538 648.004 245.137C640.53 247.626 626.827 248.248 616.861 241.405C613.746 238.916 608.763 234.561 606.272 235.805C605.026 236.428 605.026 238.916 605.026 239.538C605.026 247.626 623.712 256.958 640.53 256.336C652.988 255.714 662.331 250.115 664.199 248.87C682.263 236.428 685.377 214.031 686 209.053C689.737 173.592 653.61 134.397 619.352 123.199ZM406.328 212.786C408.197 216.519 410.066 220.874 411.934 226.473C415.049 237.05 418.786 247.626 413.803 256.336C412.557 258.202 410.689 261.313 406.951 261.935C403.837 262.557 400.723 260.691 400.1 260.691C392.625 255.714 395.117 238.916 397.608 229.584C400.1 222.118 403.214 216.519 406.328 212.786Z" fill="#062D3E"/>
</svg>
