<svg width="452" height="63" viewBox="0 0 452 63" fill="none" xmlns="http://www.w3.org/2000/svg">
<path d="M87.448 23.944L88.84 28H91.744L85.456 10.84H82.456L76.144 28H79.048L80.44 23.944H87.448ZM81.232 21.568L83.944 13.456H83.992L86.68 21.568H81.232ZM91.0525 15.736L95.3965 28H98.2525L102.597 15.736H99.9325L96.8365 25.336H96.8125L93.7165 15.736H91.0525ZM111.065 18.952C111.065 20.128 109.913 20.368 108.017 20.728C104.945 21.328 102.953 22.168 102.953 24.856C102.953 26.92 104.489 28.36 106.985 28.36C108.881 28.36 110.273 27.616 111.041 26.536H111.089C111.329 27.736 111.953 28.216 113.297 28.216C113.777 28.216 114.185 28.168 114.761 27.952V26.752C113.777 26.848 113.585 26.392 113.585 25.528V19.696C113.585 16.432 111.569 15.4 108.857 15.4C105.161 15.4 103.649 17.248 103.529 19.6H105.977C106.097 18.016 106.841 17.392 108.857 17.392C110.537 17.392 111.065 18.064 111.065 18.952ZM107.537 26.368C106.169 26.368 105.497 25.744 105.497 24.616C105.497 23.368 106.409 22.768 108.497 22.312C109.673 22.072 110.657 21.784 111.065 21.496V23.344C111.065 25.336 109.625 26.368 107.537 26.368ZM117.891 13.672C118.635 13.672 119.331 13.192 119.331 12.328C119.331 11.464 118.635 11.008 117.891 11.008C117.195 11.008 116.475 11.464 116.475 12.328C116.475 13.192 117.195 13.672 117.891 13.672ZM116.643 15.736V28H119.163V15.736H116.643ZM121.825 10.84V28H124.369V10.84H121.825ZM134.472 18.952C134.472 20.128 133.32 20.368 131.424 20.728C128.352 21.328 126.36 22.168 126.36 24.856C126.36 26.92 127.896 28.36 130.392 28.36C132.288 28.36 133.68 27.616 134.448 26.536H134.496C134.736 27.736 135.36 28.216 136.704 28.216C137.184 28.216 137.592 28.168 138.168 27.952V26.752C137.184 26.848 136.992 26.392 136.992 25.528V19.696C136.992 16.432 134.976 15.4 132.264 15.4C128.568 15.4 127.056 17.248 126.936 19.6H129.384C129.504 18.016 130.248 17.392 132.264 17.392C133.944 17.392 134.472 18.064 134.472 18.952ZM130.944 26.368C129.576 26.368 128.904 25.744 128.904 24.616C128.904 23.368 129.816 22.768 131.904 22.312C133.08 22.072 134.064 21.784 134.472 21.496V23.344C134.472 25.336 133.032 26.368 130.944 26.368ZM146.194 15.4C144.298 15.4 143.098 16.288 142.45 17.224H142.402V10.84H139.882V28H142.402V26.584H142.45C143.098 27.424 144.298 28.36 146.194 28.36C149.338 28.36 151.666 25.912 151.666 21.88C151.666 17.848 149.338 15.4 146.194 15.4ZM145.762 26.296C143.698 26.296 142.426 24.592 142.426 21.88C142.426 19.144 143.698 17.464 145.762 17.464C147.97 17.464 149.146 19.48 149.146 21.88C149.146 24.28 147.97 26.296 145.762 26.296ZM153.717 10.84V28H156.261V10.84H153.717ZM164.372 26.296C162.14 26.296 160.82 24.592 160.82 22.528H170.228C170.228 18.16 168.284 15.4 164.324 15.4C160.628 15.4 158.3 17.896 158.3 21.88C158.3 25.72 160.628 28.36 164.444 28.36C167.588 28.36 169.412 26.584 170.036 24.256H167.516C167.3 25 166.46 26.296 164.372 26.296ZM164.324 17.392C166.364 17.392 167.708 18.76 167.708 20.656H160.82C160.82 18.76 162.284 17.392 164.324 17.392ZM178.422 13.672C179.166 13.672 179.862 13.192 179.862 12.328C179.862 11.464 179.166 11.008 178.422 11.008C177.726 11.008 177.006 11.464 177.006 12.328C177.006 13.192 177.726 13.672 178.422 13.672ZM177.174 15.736V28H179.694V15.736H177.174ZM189.096 15.4C186.984 15.4 185.712 16.36 185.064 17.32H185.016V15.736H182.496V28H185.016V20.536C185.016 18.712 186.264 17.536 188.208 17.536C189.936 17.536 190.632 18.592 190.632 20.248V28H193.176V19.528C193.176 16.72 191.376 15.4 189.096 15.4ZM205.835 20.584C204.059 20.176 202.691 20.08 202.691 18.832C202.691 17.968 203.507 17.392 205.019 17.392C206.987 17.392 207.467 18.376 207.635 19.336H210.083C209.915 17.2 208.331 15.4 204.995 15.4C201.923 15.4 200.147 17.008 200.147 19.024C200.147 21.808 202.787 22.192 204.731 22.648C206.531 23.08 207.995 23.2 207.995 24.736C207.995 25.504 207.251 26.368 205.499 26.368C202.907 26.368 202.331 25.24 202.211 23.92H199.763C199.883 26.512 201.587 28.36 205.547 28.36C208.523 28.36 210.539 26.896 210.539 24.544C210.539 21.616 208.091 21.112 205.835 20.584ZM218.078 26.296C215.846 26.296 214.526 24.592 214.526 22.528H223.934C223.934 18.16 221.99 15.4 218.03 15.4C214.334 15.4 212.006 17.896 212.006 21.88C212.006 25.72 214.334 28.36 218.15 28.36C221.294 28.36 223.118 26.584 223.742 24.256H221.222C221.006 25 220.166 26.296 218.078 26.296ZM218.03 17.392C220.07 17.392 221.414 18.76 221.414 20.656H214.526C214.526 18.76 215.99 17.392 218.03 17.392ZM225.95 10.84V28H228.494V10.84H225.95ZM236.605 26.296C234.373 26.296 233.053 24.592 233.053 22.528H242.461C242.461 18.16 240.517 15.4 236.557 15.4C232.861 15.4 230.533 17.896 230.533 21.88C230.533 25.72 232.861 28.36 236.677 28.36C239.821 28.36 241.645 26.584 242.269 24.256H239.749C239.533 25 238.693 26.296 236.605 26.296ZM236.557 17.392C238.597 17.392 239.941 18.76 239.941 20.656H233.053C233.053 18.76 234.517 17.392 236.557 17.392ZM252.876 20.224H255.396C255.084 17.44 252.996 15.4 249.804 15.4C246.156 15.4 243.78 18.04 243.78 21.88C243.78 25.72 246.156 28.36 249.828 28.36C253.02 28.36 255.204 26.272 255.396 23.44H252.876C252.78 24.808 251.988 26.296 249.828 26.296C247.332 26.296 246.3 24.184 246.3 21.88C246.3 19.576 247.356 17.464 249.828 17.464C251.988 17.464 252.78 18.976 252.876 20.224ZM263.157 17.8V15.736H260.853V11.872H258.309V15.736H256.533V17.8H258.309V24.664C258.309 27.256 259.413 28.168 261.429 28.168C262.101 28.168 262.653 28.096 263.157 27.976V25.912C261.525 26.008 260.853 25.84 260.853 24.448V17.8H263.157ZM275.343 20.584C273.567 20.176 272.199 20.08 272.199 18.832C272.199 17.968 273.015 17.392 274.527 17.392C276.495 17.392 276.975 18.376 277.143 19.336H279.591C279.423 17.2 277.839 15.4 274.503 15.4C271.431 15.4 269.655 17.008 269.655 19.024C269.655 21.808 272.295 22.192 274.239 22.648C276.039 23.08 277.503 23.2 277.503 24.736C277.503 25.504 276.759 26.368 275.007 26.368C272.415 26.368 271.839 25.24 271.719 23.92H269.271C269.391 26.512 271.095 28.36 275.055 28.36C278.031 28.36 280.047 26.896 280.047 24.544C280.047 21.616 277.599 21.112 275.343 20.584ZM287.549 17.8V15.736H285.245V11.872H282.701V15.736H280.925V17.8H282.701V24.664C282.701 27.256 283.805 28.168 285.821 28.168C286.493 28.168 287.045 28.096 287.549 27.976V25.912C285.917 26.008 285.245 25.84 285.245 24.448V17.8H287.549ZM297.107 18.952C297.107 20.128 295.955 20.368 294.059 20.728C290.987 21.328 288.995 22.168 288.995 24.856C288.995 26.92 290.531 28.36 293.027 28.36C294.923 28.36 296.315 27.616 297.083 26.536H297.131C297.371 27.736 297.995 28.216 299.339 28.216C299.819 28.216 300.227 28.168 300.803 27.952V26.752C299.819 26.848 299.627 26.392 299.627 25.528V19.696C299.627 16.432 297.611 15.4 294.899 15.4C291.203 15.4 289.691 17.248 289.571 19.6H292.019C292.139 18.016 292.883 17.392 294.899 17.392C296.579 17.392 297.107 18.064 297.107 18.952ZM293.579 26.368C292.211 26.368 291.539 25.744 291.539 24.616C291.539 23.368 292.451 22.768 294.539 22.312C295.715 22.072 296.699 21.784 297.107 21.496V23.344C297.107 25.336 295.667 26.368 293.579 26.368ZM308.139 17.8V15.736H305.835V11.872H303.291V15.736H301.515V17.8H303.291V24.664C303.291 27.256 304.395 28.168 306.411 28.168C307.083 28.168 307.635 28.096 308.139 27.976V25.912C306.507 26.008 305.835 25.84 305.835 24.448V17.8H308.139ZM315.517 26.296C313.285 26.296 311.965 24.592 311.965 22.528H321.373C321.373 18.16 319.429 15.4 315.469 15.4C311.773 15.4 309.445 17.896 309.445 21.88C309.445 25.72 311.773 28.36 315.589 28.36C318.733 28.36 320.557 26.584 321.181 24.256H318.661C318.445 25 317.605 26.296 315.517 26.296ZM315.469 17.392C317.509 17.392 318.853 18.76 318.853 20.656H311.965C311.965 18.76 313.429 17.392 315.469 17.392ZM328.645 20.584C326.869 20.176 325.501 20.08 325.501 18.832C325.501 17.968 326.317 17.392 327.829 17.392C329.797 17.392 330.277 18.376 330.445 19.336H332.893C332.725 17.2 331.141 15.4 327.805 15.4C324.733 15.4 322.957 17.008 322.957 19.024C322.957 21.808 325.597 22.192 327.541 22.648C329.341 23.08 330.805 23.2 330.805 24.736C330.805 25.504 330.061 26.368 328.309 26.368C325.717 26.368 325.141 25.24 325.021 23.92H322.573C322.693 26.512 324.397 28.36 328.357 28.36C331.333 28.36 333.349 26.896 333.349 24.544C333.349 21.616 330.901 21.112 328.645 20.584Z" fill="#189CAB"/>
<g clip-path="url(#clip0_546_21)">
<path d="M13.8858 51.0783C15.9379 37.4227 27.0537 26.302 38.3594 26.304C38.4251 26.6525 38.5721 27.0921 38.4645 27.4301C36.6349 33.1752 39.0587 37.6299 42.9921 41.574C46.0196 44.6875 49.517 47.2268 53.6997 48.516C54.8969 48.8475 56.0942 49.1791 57.3939 49.2586C62.1541 49.6356 64.6613 47.0326 64.4299 42.2813C64.2773 39.0851 62.8751 36.4154 60.9372 33.9714C57.6313 29.7212 53.3041 26.5283 48.2209 24.3227C47.2021 23.9159 46.1834 23.5091 44.7419 22.9043C49.6854 17.4356 56.37 16.2076 62.7657 14.0146C61.6393 13.9457 60.5234 13.7053 59.3866 13.808C53.5028 14.7404 47.9997 16.5574 43.5786 20.5937C42.2921 21.721 41.1133 22.5102 39.2072 22.3937C31.8372 22.0294 25.6594 24.9249 20.477 30.0344C16.5914 33.8451 13.6223 38.3147 11.5747 43.3575C11.0628 44.6182 10.5509 45.8788 9.64526 47.8907C7.27669 43.9561 5.22324 40.5576 3.16978 37.1591C2.90461 37.229 2.63419 37.3848 2.36901 37.4547C2.24041 38.1359 1.92803 38.9781 2.15125 39.5947C3.18596 42.5864 4.22066 45.5781 5.43389 48.4946C6.57622 51.1483 7.89708 53.7269 9.03941 56.3806C10.187 58.9486 11.5366 59.634 13.3087 57.6751C16.383 54.3316 19.1264 50.7095 21.9565 47.0927C22.3345 46.599 22.0456 45.6339 22.0062 44.8563C21.1293 44.975 20.0081 44.8203 19.4568 45.3034C17.5219 47.0801 15.9283 48.9637 13.8858 51.0783ZM41.9223 26.3494C50.3243 28.3272 56.668 32.6769 60.4572 40.402C61.224 42.0853 61.7913 44.1872 60.1531 45.379C59.0609 46.1736 56.9709 46.2181 55.5085 45.9565C49.9291 44.7541 45.7857 41.4002 42.4036 36.973C40.0745 33.8161 39.494 30.5076 41.9223 26.3494Z" fill="#189CAB"/>
</g>
<defs>
<clipPath id="clip0_546_21">
<rect width="62.5869" height="48.1438" fill="white" transform="matrix(-0.998138 -0.0610034 -0.0610034 0.998138 66.2363 14.1406)"/>
</clipPath>
</defs>
</svg>
