<svg width="111" height="111" viewBox="0 0 111 111" fill="none" xmlns="http://www.w3.org/2000/svg">
<circle cx="55.5" cy="55.5009" r="55.5" fill="#FBBD08"/>
<g clip-path="url(#clip0_559_66)">
<path d="M49.8142 25.0009C51.3764 25.6041 52.9035 26.3299 54.507 26.7819C56.7318 27.4059 58.8835 26.9729 60.8509 25.7951C62.4209 24.8561 63.8861 24.9022 65.4101 25.897C68.4295 27.8675 71.4966 29.7711 74.5096 31.7527C75.0484 32.1103 75.4893 32.5973 75.792 33.1693C78.4459 38.4456 81.0521 43.7458 83.671 49.0396C84.2717 50.2524 84.0699 50.9066 82.8765 51.5862C80.1749 53.1333 77.4813 54.6836 74.7718 56.2132C74.6154 56.2845 74.4853 56.4032 74.3997 56.5526C74.3142 56.7019 74.2776 56.8743 74.2951 57.0456C74.3088 61.6327 74.3115 66.2193 74.303 70.8054C74.3169 71.0232 74.3084 71.2419 74.2776 71.458C74.1775 71.945 73.8723 72.2363 73.3606 72.2109C72.8489 72.1854 72.5661 71.8925 72.5168 71.3863C72.5009 71.2081 72.5057 71.0298 72.5057 70.85V45.7767C72.5057 45.6573 72.5057 45.538 72.5057 45.4186C72.5263 44.7533 72.841 44.3888 73.3956 44.3904C73.9502 44.392 74.2951 44.7708 74.2982 45.4202C74.3078 47.8634 74.2982 50.305 74.2982 52.7418V54.4146L82.0739 49.958C82.0024 49.7797 81.9484 49.6174 81.8721 49.4661C79.3146 44.2965 76.7551 39.1279 74.1933 33.9603C74.1045 33.7424 73.9624 33.5503 73.7802 33.4016C71.4203 31.8721 69.0461 30.3616 66.6401 28.8224C66.5734 28.9912 66.5098 29.1249 66.4621 29.2665C64.3486 35.6634 57.3214 38.6955 51.2397 35.8337C51.0252 35.7318 50.8138 35.622 50.604 35.4994C50.1273 35.2065 49.9684 34.7354 50.1861 34.2882C50.4038 33.8409 50.9076 33.7184 51.4574 33.9205C52.5491 34.3168 53.6314 34.8182 54.7612 35.0076C59.2109 35.7557 63.8083 32.6345 64.8841 28.2431C64.9652 27.9136 64.935 27.6812 64.5997 27.5173C64.3041 27.3725 64.0323 27.1783 63.6827 26.965C63.2664 29.3174 62.146 31.1431 60.2104 32.4196C58.7971 33.3671 57.1046 33.8065 55.4096 33.6658C52.1821 33.4255 49.053 31.1415 48.2839 27.0255C47.8869 27.246 47.5056 27.4938 47.1429 27.7672C47.0412 27.8547 47.0761 28.1715 47.127 28.3625C47.4595 29.5922 48.0476 30.7377 48.8528 31.724C49.1436 32.0885 49.2501 32.5342 48.9195 32.8573C48.6939 33.0785 48.2712 33.1756 47.9359 33.1756C47.742 33.1756 47.4798 32.9193 47.3638 32.714C46.7281 31.5999 46.1354 30.4634 45.5315 29.3318C45.4683 29.1898 45.4152 29.0435 45.3726 28.8941C45.2009 28.9864 45.0547 29.0532 44.9069 29.144C42.7277 30.5181 40.5516 31.8975 38.3787 33.2823C38.147 33.427 37.9561 33.6286 37.8241 33.868C35.2211 39.1034 32.6255 44.3432 30.0373 49.5871C29.9848 49.6906 29.9499 49.802 29.8911 49.9516L37.6684 54.4082V53.6761C37.6684 50.9554 37.6684 48.2353 37.6684 45.5157C37.6684 44.7946 37.9735 44.4015 38.5297 44.3856C39.0366 44.3761 39.3608 44.6259 39.4419 45.1321C39.4676 45.3694 39.475 45.6083 39.4641 45.8467V84.1625H72.4755V75.4737C72.4755 75.2955 72.4755 75.1156 72.4755 74.9389C72.5136 74.3914 72.8251 74.0699 73.3225 74.0524C73.4422 74.0429 73.5625 74.0584 73.6759 74.0981C73.7892 74.1377 73.8931 74.2005 73.9808 74.2826C74.0686 74.3647 74.1383 74.4641 74.1856 74.5747C74.2328 74.6852 74.2566 74.8043 74.2553 74.9246C74.2887 75.617 74.2665 76.3141 74.268 77.0081C74.268 79.4115 74.268 81.8138 74.268 84.2151C74.268 85.4566 73.7309 85.9929 72.4946 85.9929H39.4625C38.2341 85.9929 37.697 85.4518 37.697 84.2071C37.697 75.1729 37.7002 66.1392 37.7065 57.1061C37.7065 56.6556 37.5873 56.4042 37.1805 56.1766C34.4789 54.6629 31.8108 53.1158 29.1283 51.5799C27.9333 50.8955 27.7251 50.2492 28.3337 49.0332C30.9526 43.7394 33.5705 38.445 36.1873 33.1501C36.4702 32.5573 36.919 32.0596 37.4793 31.7176C40.2682 29.9668 43.0413 28.1937 45.8286 26.4652C46.6947 25.9272 47.618 25.48 48.5143 24.9913L49.8142 25.0009ZM50.2353 27.1274C50.496 29.7918 53.366 32.0296 56.2741 31.8943C58.8835 31.7718 61.6311 29.5069 61.6566 27.4282C57.7981 29.5578 54.0032 29.0899 50.2353 27.1274Z" fill="#062D3E"/>
</g>
<defs>
<clipPath id="clip0_559_66">
<rect width="56" height="61" fill="white" transform="translate(28 25.0009)"/>
</clipPath>
</defs>
</svg>
