<svg width="112" height="111" viewBox="0 0 112 111" fill="none" xmlns="http://www.w3.org/2000/svg">
<circle cx="55.5029" cy="55.501" r="55.5" fill="#FBBD08"/>
<g clip-path="url(#clip0_1_781)">
<path d="M49.62 57.5354C49.62 57.5354 48.0088 69.1928 46.5453 79.8679C46.2644 79.8872 45.985 79.9256 45.7091 79.9828C44.3328 80.2669 43.0857 80.9958 42.1589 82.0577C41.2322 83.1196 40.6769 84.4559 40.5783 85.8618C40.4797 87.2676 40.8432 88.6654 41.6131 89.8408C42.383 91.0162 43.5167 91.9044 44.8405 92.3692C44.4812 95.0372 44.2433 96.8313 44.2152 97.1406C44.0502 98.8971 45.7946 99.3375 46.1742 97.5252C46.2778 97.0282 46.6059 95.1326 47.0102 92.7259C47.4261 92.7232 47.8409 92.6793 48.2486 92.595C49.6271 92.311 50.8761 91.581 51.8037 90.517C52.7313 89.453 53.2861 88.1141 53.3828 86.7061C53.4794 85.298 53.1127 83.8988 52.3389 82.7235C51.565 81.5482 50.427 80.6619 49.0997 80.2009C50.31 72.0991 74.7603 15.4119 73.5806 14.4C72.4009 13.3881 56.4176 44.1191 49.62 57.5354ZM51.5779 85.3406C51.7606 86.2526 51.6694 87.1994 51.316 88.0614C50.9626 88.9234 50.3628 89.6618 49.5925 90.1833C48.8221 90.7048 47.9158 90.986 46.9882 90.9913C46.0605 90.9965 45.1531 90.7257 44.3808 90.2129C43.6084 89.7002 43.0058 88.9686 42.649 88.1107C42.2922 87.2527 42.1974 86.307 42.3764 85.3929C42.5555 84.4789 43.0004 83.6377 43.655 82.9756C44.3095 82.3135 45.1443 81.8604 46.0537 81.6734C46.6578 81.5491 47.2798 81.5455 47.8844 81.6626C48.489 81.7797 49.0642 82.0152 49.5772 82.3558C50.0902 82.6963 50.5309 83.1352 50.8742 83.6474C51.2175 84.1595 51.4566 84.7349 51.5779 85.3406Z" fill="#062D3E"/>
<path d="M35.6405 69.8996L34.462 70.685C33.6054 69.7725 32.5008 69.1322 31.284 68.8427C30.0672 68.5533 28.7914 68.6274 27.6133 69.056C26.4353 69.4846 25.4066 70.2489 24.6537 71.2549C23.9008 72.2609 23.4565 73.4647 23.3756 74.7182C23.2947 75.9718 23.5806 77.2203 24.1982 78.3103C24.8158 79.4004 25.7381 80.2842 26.8517 80.8533C27.9654 81.4223 29.2216 81.6516 30.4661 81.5131C31.7105 81.3745 32.8887 80.8741 33.8559 80.0734C34.03 80.2018 34.1637 80.2979 34.2502 80.3586C35.8538 81.4775 36.8944 79.8565 35.49 78.6164C35.4495 78.5799 35.3749 78.5159 35.27 78.4302C36.1281 77.0101 36.4076 75.3143 36.0501 73.6969C35.9895 73.4215 35.9105 73.1505 35.8138 72.8857C44.9384 67.1933 54.9056 60.9537 54.9056 60.9537C64.3519 49.2522 85.8395 22.0999 84.4274 21.4344C83.0152 20.7689 41.4311 66.8592 35.6405 69.8996ZM34.3586 74.076C34.5588 74.9842 34.4859 75.9325 34.1491 76.8012C33.8124 77.6698 33.2269 78.4196 32.4667 78.956C31.7065 79.4923 30.8057 79.7909 29.8782 79.8142C28.9508 79.8375 28.0383 79.5843 27.2562 79.0867C26.474 78.5891 25.8573 77.8694 25.4841 77.0187C25.1108 76.1679 24.9977 75.2242 25.1591 74.3069C25.3205 73.3897 25.7492 72.54 26.3909 71.8654C27.0326 71.1908 27.8585 70.7215 28.7642 70.5169C29.9792 70.2429 31.251 70.464 32.3001 71.1314C33.3492 71.7988 34.0896 72.858 34.3586 74.076Z" fill="#062D3E"/>
<path d="M51.8491 57.92C51.9152 58.2168 52.0676 58.4869 52.2869 58.6963C52.5062 58.9057 52.7827 59.045 53.0814 59.0966C53.3801 59.1482 53.6877 59.1097 53.9653 58.9861C54.2429 58.8625 54.4781 58.6592 54.6412 58.402C54.8042 58.1448 54.8879 57.8451 54.8815 57.5409C54.8752 57.2366 54.7792 56.9414 54.6055 56.6925C54.4319 56.4436 54.1885 56.2522 53.9061 56.1424C53.6236 56.0326 53.3147 56.0093 53.0185 56.0756C52.8211 56.1197 52.6342 56.2025 52.4685 56.3192C52.3028 56.4359 52.1616 56.5842 52.053 56.7555C51.9443 56.9269 51.8704 57.118 51.8354 57.3178C51.8004 57.5176 51.8051 57.7223 51.8491 57.92Z" fill="#FBBD08"/>
</g>
<defs>
<clipPath id="clip0_1_781">
<rect width="35.2873" height="88.6952" fill="white" transform="translate(55.1123 6.48193) rotate(23.5379)"/>
</clipPath>
</defs>
</svg>
