<svg width="1440" height="263" viewBox="0 0 1440 263" fill="none" xmlns="http://www.w3.org/2000/svg">
<rect width="1440" height="263" fill="#062D3E"/>
<path d="M590.372 118.626C595.641 130.685 600.15 143.46 607.646 154.267C608.594 155.624 610.881 154.867 610.406 153.091C607.113 140.21 600.405 128.242 594.639 116.242C593.29 113.382 589.109 115.816 590.372 118.626Z" fill="#FBBD08"/>
<path d="M578.616 160.115C578.763 165.053 579.58 170.031 581.13 174.74C582.498 178.766 584.331 183.986 587.939 186.535C589.743 187.81 591.751 185.737 591.463 183.838C590.802 179.989 587.794 176.401 586.5 172.648C585.045 168.572 584.137 164.35 583.863 160.032C583.657 156.793 578.46 156.79 578.616 160.115Z" fill="#FBBD08"/>
<path d="M593.607 207.49C592.255 209.827 595.891 211.931 597.243 209.593C598.595 207.256 594.959 205.153 593.607 207.49Z" fill="#FBBD08"/>
<path d="M554.021 178.466C555.94 183.735 557.946 189.055 560.002 194.288C560.822 196.264 564.051 195.475 563.281 193.412C561.412 188.056 559.306 182.91 557.3 177.59C556.529 175.527 553.25 176.403 554.021 178.466Z" fill="#FBBD08"/>
<path d="M560.588 217.039C563.486 220.217 565.127 224.17 568.075 227.262C569.296 228.546 571.682 227.616 571.704 225.781C571.507 220.93 567.884 216.408 564.727 213.079C562.111 210.411 558.196 214.384 560.588 217.039Z" fill="#FBBD08"/>
<path d="M559.196 124.389C559.366 129.686 558.816 135.029 561.123 139.829C561.601 140.799 563.054 140.484 563.382 139.519C564.984 134.553 563.684 129.411 563.277 124.324C562.93 121.928 559.085 121.783 559.196 124.389Z" fill="#FBBD08"/>
<path d="M545.362 80.803C545.622 83.1487 545.933 85.4078 546.517 87.594C546.858 88.6005 547.797 89.3745 548.826 89.3924C549.769 89.3602 550.976 88.672 551.131 87.6061C551.335 86.4537 551.54 85.3012 551.521 84.1352C551.453 83.0557 551.52 81.9397 551.452 80.8603C551.46 79.2478 550.03 77.727 548.367 77.8049C546.891 77.7599 545.061 79.1269 545.362 80.803Z" fill="#FBBD08"/>
<path d="M528.073 99.1056C528.279 102.344 528.485 105.582 528.778 108.871C529.011 111.663 528.821 114.788 530.01 117.324C530.721 118.891 533.044 118.271 533.485 116.909C534.232 114.221 533.752 111.056 533.519 108.264C533.35 105.162 533.13 102.147 532.96 99.0448C532.791 95.943 527.817 95.9537 528.073 99.1056Z" fill="#FBBD08"/>
<path d="M586.691 62.0827C583.405 68.9616 578.475 77.0846 577.516 84.7325C577.28 87.1376 580.455 87.2413 581.529 85.7834C583.815 82.8311 584.952 78.868 586.286 75.3649C587.733 71.4654 589.18 67.566 590.454 63.5664C591.21 61.4618 587.67 59.9917 586.691 62.0827Z" fill="#FBBD08"/>
<path d="M537.927 188.911C538.698 190.974 539.468 193.037 540.238 195.1C540.936 196.89 541.533 198.853 542.691 200.447C543.269 201.244 544.699 200.569 544.667 199.626C544.516 197.691 543.596 195.887 542.898 194.097C542.164 192.171 541.43 190.244 540.696 188.318C540.049 186.441 537.316 187.171 537.927 188.911Z" fill="#FBBD08"/>
<path d="M551.179 236.897C553.084 240.194 554.853 243.527 557.368 246.369C557.874 246.892 558.894 246.327 558.711 245.644C557.453 242.028 555.448 238.904 553.543 235.607C552.645 234.163 550.281 235.453 551.179 236.897Z" fill="#FBBD08"/>
<path d="M631.044 137.187C631.154 139.793 631.228 142.261 631.338 144.867C631.425 147.112 631.499 149.581 632.356 151.694C632.98 153.211 635.166 152.627 635.608 151.265C636.277 149.11 635.893 146.578 635.669 144.369C635.459 141.937 635.249 139.504 635.038 137.072C635.015 134.517 630.897 134.445 631.044 137.187Z" fill="#FBBD08"/>
<path d="M536.867 150.404C535.815 152.222 538.585 153.824 539.637 152.007C540.638 150.276 537.868 148.673 536.867 150.404Z" fill="#FBBD08"/>
</svg>
