<svg width="80" height="17" viewBox="0 0 80 17" fill="none" xmlns="http://www.w3.org/2000/svg">
<path d="M4.42601 0.712036C5.58801 0.712036 6.58201 0.908036 7.40801 1.30004C8.23401 1.69204 8.86401 2.25204 9.29801 2.98004C9.74601 3.70804 9.97001 4.59004 9.97001 5.62604C9.97001 6.22804 9.87201 6.83004 9.67601 7.43204C9.49401 8.03404 9.20001 8.58004 8.79401 9.07004C8.40201 9.56004 7.87001 9.95204 7.19801 10.246C6.54001 10.54 5.72801 10.687 4.76201 10.687H2.55701V16H0.100006V0.712036H4.42601ZM4.76201 8.33504C5.29401 8.33504 5.74201 8.24404 6.10601 8.06204C6.47001 7.88004 6.75001 7.64904 6.94601 7.36904C7.15601 7.08904 7.30301 6.79504 7.38701 6.48704C7.48501 6.17904 7.53401 5.90604 7.53401 5.66804C7.53401 5.43004 7.49201 5.16404 7.40801 4.87004C7.32401 4.56204 7.18401 4.27504 6.98801 4.00904C6.79201 3.72904 6.51901 3.50504 6.16901 3.33704C5.81901 3.15504 5.37101 3.06404 4.82501 3.06404H2.55701V8.33504H4.76201Z" fill="#062D3E"/>
<path d="M16.9069 16.231C15.8569 16.231 14.9609 16.028 14.2189 15.622C13.4769 15.216 12.9099 14.656 12.5179 13.942C12.1259 13.228 11.9299 12.409 11.9299 11.485C11.9299 10.603 12.1539 9.80504 12.6019 9.09104C13.0499 8.36304 13.6519 7.78904 14.4079 7.36904C15.1779 6.93504 16.0249 6.71804 16.9489 6.71804C18.1669 6.71804 19.1679 7.07504 19.9519 7.78904C20.7499 8.48904 21.2819 9.48304 21.5479 10.771L14.3869 13.186L13.8409 11.863L19.4479 9.86804L18.9439 10.141C18.8039 9.72104 18.5589 9.35704 18.2089 9.04904C17.8589 8.72704 17.3759 8.56604 16.7599 8.56604C16.2699 8.56604 15.8359 8.68504 15.4579 8.92304C15.0799 9.16104 14.7789 9.49004 14.5549 9.91004C14.3449 10.316 14.2399 10.799 14.2399 11.359C14.2399 11.947 14.3589 12.458 14.5969 12.892C14.8349 13.312 15.1569 13.641 15.5629 13.879C15.9689 14.103 16.4309 14.215 16.9489 14.215C17.3129 14.215 17.6559 14.152 17.9779 14.026C18.3139 13.9 18.6359 13.732 18.9439 13.522L20.0149 15.265C19.5529 15.559 19.0419 15.797 18.4819 15.979C17.9359 16.147 17.4109 16.231 16.9069 16.231Z" fill="#062D3E"/>
<path d="M24.9332 3.21104H27.2852V7.11704H29.5952V8.96504H27.2852V16H24.9332V8.96504H23.4002V7.11704H24.9332V3.21104Z" fill="#062D3E"/>
<path d="M31.6331 10.33H35.5602V12.388H31.6331V10.33Z" fill="#062D3E"/>
<path d="M39.2076 0.712036H48.4896V3.06404H41.6646V7.36904H47.6076V9.70004H41.6646V16H39.2076V0.712036Z" fill="#062D3E"/>
<path d="M51.1572 7.11704H53.5092V16H51.1572V7.11704ZM51.0522 3.92504C51.0522 3.56104 51.1922 3.26004 51.4722 3.02204C51.7662 2.78404 52.0812 2.66504 52.4172 2.66504C52.7532 2.66504 53.0542 2.78404 53.3202 3.02204C53.5862 3.26004 53.7192 3.56104 53.7192 3.92504C53.7192 4.28904 53.5862 4.59004 53.3202 4.82804C53.0542 5.05204 52.7532 5.16404 52.4172 5.16404C52.0812 5.16404 51.7662 5.04504 51.4722 4.80704C51.1922 4.56904 51.0522 4.27504 51.0522 3.92504Z" fill="#062D3E"/>
<path d="M59.0664 7.11704L59.2764 9.63704L59.1924 9.28004C59.4304 8.74804 59.7664 8.29304 60.2004 7.91504C60.6484 7.53704 61.1034 7.24304 61.5654 7.03304C62.0414 6.82304 62.4264 6.71804 62.7204 6.71804L62.6154 9.07004C61.9434 9.01404 61.3554 9.13304 60.8514 9.42704C60.3614 9.72104 59.9764 10.12 59.6964 10.624C59.4164 11.114 59.2764 11.632 59.2764 12.178V16H56.9454V7.11704H59.0664Z" fill="#062D3E"/>
<path d="M68.005 16.189C67.333 16.189 66.689 16.07 66.073 15.832C65.471 15.594 64.967 15.244 64.561 14.782L65.548 13.459C65.94 13.837 66.325 14.117 66.703 14.299C67.095 14.467 67.466 14.551 67.816 14.551C68.082 14.551 68.32 14.523 68.53 14.467C68.754 14.397 68.929 14.292 69.055 14.152C69.195 14.012 69.265 13.823 69.265 13.585C69.265 13.305 69.167 13.088 68.971 12.934C68.775 12.766 68.523 12.633 68.215 12.535C67.907 12.423 67.578 12.318 67.228 12.22C66.472 11.968 65.905 11.618 65.527 11.17C65.149 10.708 64.96 10.176 64.96 9.57404C64.96 9.11204 65.079 8.67104 65.317 8.25104C65.555 7.81704 65.919 7.46004 66.409 7.18004C66.899 6.90004 67.515 6.76004 68.257 6.76004C68.929 6.76004 69.51 6.83704 70 6.99104C70.504 7.14504 70.973 7.39004 71.407 7.72604L70.504 9.15404C70.252 8.90204 69.951 8.71304 69.601 8.58704C69.265 8.44704 68.957 8.37004 68.677 8.35604C68.425 8.34204 68.201 8.37704 68.005 8.46104C67.809 8.53104 67.648 8.63604 67.522 8.77604C67.396 8.91604 67.333 9.07704 67.333 9.25904C67.333 9.53904 67.431 9.76304 67.627 9.93104C67.837 10.099 68.103 10.232 68.425 10.33C68.747 10.428 69.069 10.533 69.391 10.645C69.825 10.771 70.203 10.946 70.525 11.17C70.861 11.394 71.127 11.667 71.323 11.989C71.519 12.297 71.617 12.682 71.617 13.144C71.617 13.676 71.484 14.18 71.218 14.656C70.952 15.118 70.553 15.489 70.021 15.769C69.489 16.049 68.817 16.189 68.005 16.189Z" fill="#062D3E"/>
<path d="M75.2889 3.21104H77.6409V7.11704H79.9509V8.96504H77.6409V16H75.2889V8.96504H73.7559V7.11704H75.2889V3.21104Z" fill="#062D3E"/>
</svg>
